<?xml version="1.0" encoding="UTF-8"?>
<svg id="Layer_1" xmlns="http://www.w3.org/2000/svg" version="1.1" viewBox="0 0 138.6 100">
  <!-- Generator: Adobe Illustrator 29.0.1, SVG Export Plug-In . SVG Version: 2.1.0 Build 192)  -->
  <defs>
    <style>
      .st0, .st1 {
        fill: #0a3235;
      }

      .st1 {
        fill-rule: evenodd;
      }
    </style>
  </defs>
  <g id="Logo_Wordmark">
    <g id="S2_Logo">
      <path class="st1" d="M138.6,30.4c-4.9,3.1-8.3,4.8-12.3,7.2-24,14.5-47.1,30.7-65,51.9l-8.6,10.5-26.5-42c5.9,4.7,20.6,17.9,26.6,20.8l19.4-14.5c13.6-9.6,51.7-30.3,66.4-33.9Z"/>
      <path class="st0" d="M38.6,61.9l1.9,1.5c-5.8-15.8-15.2-30-27.4-41.6H0c15.3,10.8,28.4,24.4,38.6,40Z"/>
      <path class="st0" d="M42.9,65.7l1.6,1.3c-.8-19.7-8.2-39.8-22.1-57.1h-12.4c17.9,16.5,28.8,36.4,32.9,55.8Z"/>
      <path class="st0" d="M46.5,68.5c2,1.6,4,3.1,5.6,4.2,4.4-21.9.5-44.6-10.9-63.8l58.4-.8c4.4,9.6,6.9,20,7.5,30.6,1.7-.9,3.4-1.7,5.1-2.5-.6-10.8-3.7-22.5-9.6-36.2H22.9c17.3,20.5,25.2,45.3,23.6,68.5Z"/>
    </g>
  </g>
</svg>