<?xml version="1.0" encoding="UTF-8"?>
<svg id="Layer_1" xmlns="http://www.w3.org/2000/svg" version="1.1" xmlns:xlink="http://www.w3.org/1999/xlink" viewBox="0 0 807.9 212.6">
  <!-- Generator: Adobe Illustrator 29.3.1, SVG Export Plug-In . SVG Version: 2.1.0 Build 151)  -->
  <defs>
    <style>
      .st0 {
        fill: #231f20;
      }

      .st1 {
        fill: #98ca3c;
      }

      .st2 {
        fill: #758bc6;
      }
    </style>
  </defs>
  <g>
    <g>
      <path class="st0" d="M63.2-583.7c-31.9,0-57.9-26-57.9-57.9s26-57.9,57.9-57.9,57.9,26,57.9,57.9-26,57.9-57.9,57.9ZM63.2-691.2c-27.3,0-49.6,22.2-49.6,49.6s22.2,49.6,49.6,49.6,49.6-22.2,49.6-49.6-22.2-49.6-49.6-49.6Z"/>
      <path class="st0" d="M63.2-707.6c-2.3,0-4.2-1.9-4.2-4.2v-19.9c0-2.3,1.9-4.2,4.2-4.2s4.2,1.9,4.2,4.2v19.9c0,2.3-1.9,4.2-4.2,4.2Z"/>
      <path class="st0" d="M28.1-698.2c-1.4,0-2.8-.7-3.6-2.1l-9.9-17.2c-1.2-2-.5-4.5,1.5-5.7s4.5-.5,5.7,1.5l9.9,17.2c1.2,2,.5,4.5-1.5,5.7-.7.4-1.4.6-2.1.6Z"/>
      <path class="st0" d="M2.4-672.5c-.7,0-1.4-.2-2.1-.6l-17.2-9.9c-2-1.2-2.7-3.7-1.5-5.7s3.7-2.7,5.7-1.5l17.2,9.9c2,1.2,2.7,3.7,1.5,5.7-.8,1.3-2.2,2.1-3.6,2.1Z"/>
      <path class="st0" d="M-7-637.5h-19.9c-2.3,0-4.2-1.9-4.2-4.2s1.9-4.2,4.2-4.2H-7c2.3,0,4.2,1.9,4.2,4.2s-1.9,4.2-4.2,4.2Z"/>
      <path class="st0" d="M-14.8-592.4c-1.4,0-2.8-.7-3.6-2.1-1.2-2-.5-4.5,1.5-5.7l17.2-9.9c2-1.2,4.5-.5,5.7,1.5s.5,4.5-1.5,5.7l-17.2,9.9c-.7.4-1.4.6-2.1.6Z"/>
      <path class="st0" d="M18.2-559.5c-.7,0-1.4-.2-2.1-.6-2-1.2-2.7-3.7-1.5-5.7l9.9-17.2c1.2-2,3.7-2.7,5.7-1.5s2.7,3.7,1.5,5.7l-9.9,17.2c-.8,1.3-2.2,2.1-3.6,2.1Z"/>
      <path class="st0" d="M63.2-547.4c-2.3,0-4.2-1.9-4.2-4.2v-19.9c0-2.3,1.9-4.2,4.2-4.2s4.2,1.9,4.2,4.2v19.9c0,2.3-1.9,4.2-4.2,4.2Z"/>
      <path class="st0" d="M108.2-559.5c-1.4,0-2.8-.7-3.6-2.1l-9.9-17.2c-1.2-2-.5-4.5,1.5-5.7s4.5-.5,5.7,1.5l9.9,17.2c1.2,2,.5,4.5-1.5,5.7-.7.4-1.4.6-2.1.6Z"/>
      <path class="st0" d="M141.2-592.4c-.7,0-1.4-.2-2.1-.6l-17.2-9.9c-2-1.2-2.7-3.7-1.5-5.7s3.7-2.7,5.7-1.5l17.2,9.9c2,1.2,2.7,3.7,1.5,5.7-.8,1.3-2.2,2.1-3.6,2.1h0Z"/>
      <path class="st0" d="M153.3-637.5h-19.9c-2.3,0-4.2-1.9-4.2-4.2s1.9-4.2,4.2-4.2h19.9c2.3,0,4.2,1.9,4.2,4.2s-1.9,4.2-4.2,4.2Z"/>
      <path class="st0" d="M124-672.5c-1.4,0-2.8-.7-3.6-2.1-1.2-2-.5-4.5,1.5-5.7l17.2-9.9c2-1.2,4.5-.5,5.7,1.5s.5,4.5-1.5,5.7l-17.2,9.9c-.7.4-1.4.6-2.1.6Z"/>
      <path class="st0" d="M98.3-698.2c-.7,0-1.4-.2-2.1-.6-2-1.2-2.7-3.7-1.5-5.7l9.9-17.2c1.2-2,3.7-2.7,5.7-1.5s2.7,3.7,1.5,5.7l-9.9,17.2c-.8,1.3-2.2,2.1-3.6,2.1Z"/>
      <path class="st0" d="M17.8-615.7c-2.2,0-3.7,0-3.9-.2l.8-8.3c5.3.5,19.9,0,23.8-8.1,2.4-5.2,3-10.2,3.5-15.5.7-6.5,1.4-13.3,5.9-20,.8-1.2,1.6-2.2,2.4-3.1,3.6-4.6,5.6-7.1-5.6-20.1l6.3-5.5c14.6,16.9,11.6,23.4,5.8,30.7-.7.9-1.4,1.7-2,2.6-3.3,4.9-3.9,10.1-4.5,16.2-.6,5.5-1.2,11.7-4.3,18.2-5.5,11.6-20.9,13-28.2,13h0Z"/>
      <path class="st0" d="M112.1-637.7c0-5.3-7.9-9-16.1-13-7.8-3.8-15.9-7.7-20.2-14.1-9.8-14.7.3-30.2.7-30.8l7,4.6c-.3.5-7.4,11.5-.7,21.6,3.1,4.6,10.1,8,16.9,11.3,10.1,4.9,20.6,9.9,20.8,20.3l-8.3.2h0Z"/>
      <path class="st0" d="M62.5-588.9c0,0-1-11.7-4.2-19.3-2.3-5.6-3.8-17.8,2.3-26.5,3-4.2,8.9-9.2,20.2-8.6,24.6,1.2,32.8,25.9,33.1,27l-8,2.5c-.3-.8-6.8-20.3-25.5-21.2-6.1-.3-10.4,1.4-13,5.1-3.9,5.6-3.2,14.3-1.4,18.5,3.7,8.9,4.8,21.3,4.8,21.8,0,0-8.3.7-8.3.7Z"/>
    </g>
    <g>
      <path class="st0" d="M216.9-616.9c5.5,0,9.5-1.1,12.2-3.3,2.6-2.2,4-5,4-8.3s-1-5.3-3-7.2c-2-1.8-5.1-3.4-9.3-4.6l-9.2-2.8c-4.7-1.6-8.9-3.4-12.4-5.4s-6.3-4.6-8.2-7.7c-1.9-3.2-2.9-7.1-2.9-11.7,0-7.7,2.9-13.7,8.6-18.1,5.7-4.4,13.5-6.7,23.5-6.7s10,.5,14.1,1.6,7.4,2.6,9.8,4.5c2.4,1.9,3.6,4.1,3.6,6.7s-.5,3.4-1.3,4.7c-.9,1.4-2,2.5-3.3,3.3-2.2-1.6-5.2-3-8.9-4.2-3.8-1.2-7.9-1.8-12.3-1.8s-8.7.9-11.3,2.7-4,4.2-4,7.2.9,4.4,2.8,6c1.8,1.5,4.7,2.8,8.4,4l8.2,2.4c8.1,2.5,14.5,5.8,19,10s6.8,9.9,6.8,17.2-3,14-8.9,18.9c-5.9,4.8-14.3,7.2-25.3,7.2s-10.9-.6-15.3-1.8c-4.4-1.2-8-2.9-10.6-5.1-2.6-2.2-3.9-4.6-3.9-7.4s.7-3.9,2-5.4,2.7-2.6,4.3-3.4c2.5,2.1,5.6,4,9.5,5.8s8.4,2.7,13.6,2.7h-.3Z"/>
      <path class="st0" d="M332.2-638c0,7.3-1.4,13.6-4.3,18.9-2.8,5.3-6.8,9.5-12,12.3-5.2,2.9-11.2,4.3-18.2,4.3s-13.1-1.4-18.3-4.3c-5.2-2.9-9.2-7-12.1-12.3s-4.3-11.6-4.3-19,1.5-13.6,4.4-18.9c2.9-5.3,7-9.4,12.2-12.3,5.2-2.9,11.2-4.3,18.1-4.3s12.9,1.5,18.1,4.4,9.2,7,12.1,12.3,4.3,11.5,4.3,18.7v.2ZM297.6-659.6c-5.1,0-9.1,1.9-12.1,5.7s-4.5,9.1-4.5,15.9,1.5,12.4,4.4,16.1c2.9,3.7,7,5.6,12.3,5.6s9.3-1.9,12.2-5.7c2.9-3.8,4.4-9.1,4.4-16s-1.5-12-4.4-15.8-7-5.7-12.3-5.7h0Z"/>
      <path class="st0" d="M365.5-632.1l-17.4-.9v-63.7c.7-.2,1.7-.4,3.2-.7s3-.4,4.6-.4c3.4,0,5.9.6,7.4,1.8s2.3,3.3,2.3,6.3v57.6h-.1ZM348-641.9l17.4.9v36.3c-.8.3-1.8.5-3.3.8-1.4.2-3,.4-4.7.4-3.2,0-5.6-.6-7.2-1.8s-2.3-3.3-2.3-6.3v-30.2h.1Z"/>
      <path class="st0" d="M410.9-602.3c-9.5,0-16.9-1.8-22.3-5.5-5.4-3.6-8.1-9-8.1-16.2s2-11.2,6-14.5c4-3.4,9.9-5.4,17.5-6.2l19.3-2v-2.6c0-3.8-1.3-6.5-3.9-8.2s-6.3-2.6-11-2.6-7.3.5-10.8,1.4-6.6,2.1-9.4,3.4c-.9-.8-1.8-1.8-2.6-3.1-.8-1.3-1.1-2.7-1.1-4.1,0-3.4,1.9-5.9,5.7-7.5,2.6-1.2,5.7-2.1,9.3-2.7,3.5-.6,7.1-.9,10.6-.9,9.3,0,16.6,2,22.1,5.9s8.2,10.1,8.2,18.5v32.6c0,2.3-.5,4.1-1.6,5.4-1.1,1.3-2.5,2.5-4.2,3.5-2.6,1.5-6,2.8-10.1,3.8s-8.6,1.5-13.8,1.5h.2ZM410.9-615.6c2.8,0,5.4-.3,7.7-.9,2.3-.6,3.9-1.2,5-1.8v-16.2l-14,1.4c-3.9.3-6.8,1.1-8.9,2.5-2,1.4-3,3.4-3,6s1.1,4.9,3.3,6.5c2.2,1.6,5.5,2.4,10.1,2.4h-.2Z"/>
      <path class="st0" d="M492.8-659.4c-5.7,0-10.4,1.8-14.2,5.5-3.8,3.7-5.7,9.1-5.7,16.2s1.8,12.3,5.5,15.9c3.7,3.6,8.5,5.4,14.3,5.4s6.5-.4,8.9-1.3c2.4-.9,4.5-1.9,6.3-2.9,1.4.9,2.5,1.9,3.3,3,.8,1.2,1.2,2.6,1.2,4.3,0,3.2-1.9,5.8-5.8,7.9-3.9,2-9,3-15.3,3s-13.5-1.3-18.9-3.9c-5.4-2.6-9.7-6.5-12.8-11.8-3.1-5.3-4.6-11.8-4.6-19.6s1.6-14.7,4.9-20,7.6-9.2,13-11.8,11.4-3.9,17.9-3.9,11.2,1.1,15,3.3,5.7,4.9,5.7,8.1-.4,2.7-1.1,4c-.8,1.2-1.7,2.2-2.7,3-1.9-1.1-4-2.1-6.4-3s-5.2-1.3-8.5-1.3h0Z"/>
      <path class="st0" d="M532.6-629.1l-.7-12.2,38-5.7c-.3-3.6-1.7-6.7-4.1-9.4-2.5-2.6-6-4-10.8-4s-8.8,1.7-12.1,5c-3.2,3.4-4.9,8.2-5,14.4l.4,7.4c.8,6,3.2,10.5,7,13.3s8.7,4.3,14.5,4.3,7.7-.6,11.1-1.8c3.4-1.2,6.1-2.5,8.1-3.9,1.3.9,2.4,1.9,3.2,3.2s1.2,2.7,1.2,4.2c0,2.5-1.1,4.6-3.3,6.3-2.2,1.8-5.1,3.1-8.8,4s-7.9,1.4-12.6,1.4c-7.3,0-13.7-1.3-19.4-4-5.6-2.7-10-6.7-13.2-12.1-3.2-5.4-4.7-12.1-4.7-20.1s.9-10.8,2.7-15.2c1.8-4.3,4.2-8,7.3-10.8,3.1-2.9,6.6-5.1,10.7-6.5,4.1-1.5,8.3-2.2,12.8-2.2s11.7,1.3,16.4,3.8,8.4,6,11.1,10.4c2.7,4.4,4,9.5,4,15.3s-.7,4.6-2.1,5.9c-1.4,1.3-3.3,2.1-5.7,2.3l-46.1,6.7h0Z"/>
      <path class="st0" d="M631.5-633.9h-32.2c-.5-.9-.9-1.9-1.3-3-.4-1.2-.6-2.5-.6-3.9,0-2.5.6-4.3,1.9-5.5,1.3-1.2,2.9-1.8,4.9-1.8h32.2c.4.8.8,1.8,1.2,3s.6,2.5.6,3.8c0,2.5-.6,4.3-1.8,5.5s-2.9,1.8-5,1.8h0Z"/>
      <path class="st0" d="M685.2-675.9h-.7c-1.2,3.4-2.6,7.3-4,11.6-1.5,4.3-3,8.9-4.6,13.5-1.6,4.7-3.1,9.2-4.5,13.5l-2,8.8c-.6,1.8-1.2,3.8-1.8,6s-1.3,4.4-2,6.6c-.7,2.2-1.4,4.3-2,6.3s-1.2,3.7-1.6,5.2c-.9.3-2,.5-3,.8-1.1.2-2.4.4-3.9.4-3,0-5.4-.6-7.2-1.8s-2.6-3-2.6-5.3.2-2.1.5-3.3c.3-1.1.7-2.4,1.1-3.8.9-3.1,2.2-7,3.8-11.7s3.4-9.8,5.2-15.2c1.9-5.5,3.8-11,5.9-16.6,2-5.6,3.9-10.8,5.7-15.7s3.4-9,4.7-12.3c1.1-.7,2.9-1.3,5.2-1.8,2.4-.6,4.8-.9,7.2-.9s6.2.5,8.9,1.4,4.4,2.5,5,4.5c2,5.2,4.1,11.2,6.4,17.9,2.3,6.7,4.6,13.7,6.9,21,2.4,7.3,4.6,14.4,6.8,21.3,2.2,6.9,4.1,13.1,5.8,18.7-.9,1-2.2,1.9-3.9,2.6-1.7.7-3.6,1-5.7,1-3.1,0-5.4-.6-6.7-1.8-1.4-1.2-2.4-3-3.2-5.5l-5.8-18.6-1.8-9.1c-1.5-4.8-3-9.6-4.5-14.2s-2.9-9-4.2-13.1-2.5-7.6-3.4-10.5h0ZM661.4-625l6.7-14h35.4l2.7,14h-44.8Z"/>
      <path class="st0" d="M756.6-640.6h-17.9v-49.9c.8-.2,1.9-.4,3.5-.7s3.2-.4,4.8-.4c3.3,0,5.7.6,7.2,1.8s2.3,3.4,2.3,6.6v42.7h.1ZM738.8-661.3h17.9v56.6c-.8.3-1.9.5-3.4.8-1.5.2-3.1.4-4.8.4-3.4,0-5.9-.6-7.4-1.9-1.5-1.3-2.3-3.4-2.3-6.5v-49.3h0Z"/>
    </g>
  </g>
  <g>
    <g>
      <path class="st2" d="M154.5,108.7c-1.3-5.3-8.8-9-16.7-12.8-7.6-3.7-15.5-7.5-19.6-13.6-5.8-8.8-4.3-17.8-1.9-23.9l.6-1.6-1.7-.4c-3.6-.8-7.3-1.2-10.8-1.2s-4.9.2-7.8.7l-2.4.4,1.4,2c8.7,12,6.1,16.9,1.2,23.1-.7.9-1.4,1.8-2,2.7-3.6,5.2-4.1,10.6-4.7,16.9-.6,5.4-1.2,11.5-4.1,17.7-4.5,9.6-16.8,11.7-23.8,12h-2.5c0,.1,1.3,2.3,1.3,2.3,9.2,14.9,25,24,42.4,24.4h1.8l-.2-1.7c-.5-3.9-1.7-11.1-4-16.5-2.2-5.3-3.6-16.8,2.2-25,2.8-3.9,8.2-8.5,18.9-8,14.5.7,23.1,10,27.8,17.6l1.6,2.7,1.1-3c1.5-4.2,2.5-8.6,2.8-13.1v-1.7c.1,0-.7,0-.7,0h-.2Z"/>
      <g>
        <path class="st1" d="M138.9,93.6c4,1.9,8.2,4,11.6,6.3l8.8,6.1-2.1-10.5c-3.6-17.7-15.8-32.4-32.7-39.2l-3.9-1.6-1.6,3.9c-3.3,8-2.8,15.8,1.4,22.2,3.7,5.5,11.3,9.2,18.6,12.7h-.1Z"/>
        <path class="st1" d="M89.4,54.5l-2.8,1c-21.6,7.6-36.1,28-36.1,50.8s1.2,12.9,3.6,19.1l1,2.7h4c5.7,0,19.9-1,24.4-10.7,2.8-5.8,3.3-11.4,3.9-16.9.6-6.3,1.3-12.2,5.2-18,.7-1.1,1.5-2,2.2-2.9,5.2-6.5,5.9-11.4-3.5-22.9l-1.9-2.3h0Z"/>
        <path class="st1" d="M121.8,108.6h0c-9.6-.5-14.3,3.5-16.7,6.9-4.9,7-4,17.4-1.9,22.6,2.4,5.9,3.7,13.6,4.2,17.7l.6,4.3,4.3-.6c15.6-2.3,29.4-11.4,37.8-24.9l1.2-1.9-.8-2c-2.1-5-10.2-21.2-28.6-22h0Z"/>
      </g>
      <path d="M104.3,48.4c-31.9,0-57.9,26-57.9,57.9s26,57.9,57.9,57.9,57.9-26,57.9-57.9-26-57.9-57.9-57.9ZM58,123.9c-2.1-5.5-3.3-11.4-3.3-17.6,0-21.6,13.9-40,33.2-46.7,8.8,10.8,6.8,13.2,3.4,17.5-.7.9-1.6,2-2.4,3.1-4.5,6.7-5.2,13.4-5.9,20-.5,5.3-1.1,10.3-3.5,15.5-3.4,7.2-15.2,8.4-21.6,8.2h0ZM111.6,155.3c-.6-4.3-1.9-12.5-4.5-18.8-1.7-4.1-2.5-12.9,1.4-18.5,2.6-3.7,6.9-5.4,13-5.1,15.7.7,22.8,14.5,24.9,19.4-7.5,12.1-20.1,20.8-34.8,23ZM153.7,110.2c-.3,4.4-1.3,8.7-2.7,12.7-4.6-7.6-13.6-17.6-29-18.4-11.3-.5-17.3,4.4-20.2,8.6-6.1,8.7-4.7,20.8-2.3,26.5,2.2,5.2,3.3,12.2,3.9,16.2-17.4-.4-32.6-9.7-41.2-23.7,7.9-.4,20.3-2.8,25.1-12.9,3.1-6.5,3.7-12.7,4.3-18.2.6-6,1.2-11.2,4.5-16.2.6-.9,1.3-1.7,2-2.6,5.1-6.4,8-12.2-1.1-24.9,2.5-.4,5-.6,7.6-.6s7.1.4,10.5,1.1c-2.3,5.9-4.3,15.7,2.1,25.3,4.3,6.5,12.4,10.4,20.2,14.1,8.2,4,16,7.7,16.1,13h.5-.3ZM140.7,89.8c-6.8-3.3-13.8-6.7-16.9-11.3-4.5-6.8-2.7-14-1-18.2,15.2,6.2,26.7,19.6,30.1,36.1-3.6-2.5-7.9-4.6-12.2-6.6Z"/>
      <path d="M104.3,40.3c2.3,0,4.2-1.9,4.2-4.2v-19.9c0-2.3-1.9-4.2-4.2-4.2s-4.2,1.9-4.2,4.2v19.9c0,2.3,1.9,4.2,4.2,4.2Z"/>
      <path d="M65.6,47.6c.8,1.3,2.2,2.1,3.6,2.1s1.4-.2,2.1-.6c2-1.2,2.7-3.7,1.5-5.7l-9.9-17.2c-1.2-2-3.7-2.7-5.7-1.5s-2.7,3.7-1.5,5.7c0,0,9.9,17.2,9.9,17.2Z"/>
      <path d="M24.2,64.9l17.2,9.9c.7.4,1.4.6,2.1.6,1.4,0,2.8-.7,3.6-2.1,1.2-2,.5-4.5-1.5-5.7l-17.2-9.9c-2-1.2-4.6-.5-5.7,1.5-1.2,2-.5,4.5,1.5,5.7Z"/>
      <path d="M38.3,106.3c0-2.3-1.9-4.2-4.2-4.2H14.3c-2.3,0-4.2,1.9-4.2,4.2s1.9,4.2,4.2,4.2h19.9c2.3,0,4.2-1.9,4.2-4.2h-.1Z"/>
      <path d="M41.5,137.8l-17.2,9.9c-2,1.2-2.7,3.7-1.5,5.7.8,1.3,2.2,2.1,3.6,2.1s1.4-.2,2.1-.6l17.2-9.9c2-1.2,2.7-3.7,1.5-5.7s-3.7-2.7-5.7-1.5Z"/>
      <path d="M71.3,163.4c-2-1.2-4.6-.5-5.7,1.5l-9.9,17.2c-1.2,2-.5,4.5,1.5,5.7.7.4,1.4.6,2.1.6,1.4,0,2.8-.7,3.6-2.1l9.9-17.2c1.2-2,.5-4.5-1.5-5.7Z"/>
      <path d="M104.3,172.3c-2.3,0-4.2,1.9-4.2,4.2v19.9c0,2.3,1.9,4.2,4.2,4.2s4.2-1.9,4.2-4.2v-19.9c0-2.3-1.9-4.2-4.2-4.2Z"/>
      <path d="M143,165c-1.2-2-3.7-2.7-5.7-1.5s-2.7,3.7-1.5,5.7l9.9,17.2c.8,1.3,2.2,2.1,3.6,2.1s1.4-.2,2.1-.6c2-1.2,2.7-3.7,1.5-5.7l-9.9-17.2h0Z"/>
      <path d="M184.4,147.7l-17.2-9.9c-2-1.2-4.6-.5-5.7,1.5-1.2,2-.5,4.5,1.5,5.7l17.2,9.9c.7.4,1.4.6,2.1.6,1.4,0,2.8-.7,3.6-2.1,1.2-2,.5-4.5-1.5-5.7h0Z"/>
      <path d="M194.4,102.1h-19.9c-2.3,0-4.2,1.9-4.2,4.2s1.9,4.2,4.2,4.2h19.9c2.3,0,4.2-1.9,4.2-4.2s-1.9-4.2-4.2-4.2Z"/>
      <path d="M165.1,75.4c.7,0,1.4-.2,2.1-.6l17.2-9.9c2-1.2,2.7-3.7,1.5-5.7s-3.7-2.7-5.7-1.5l-17.2,9.9c-2,1.2-2.7,3.7-1.5,5.7.8,1.3,2.2,2.1,3.6,2.1h0Z"/>
      <path d="M137.3,49.2c.7.4,1.4.6,2.1.6,1.4,0,2.8-.7,3.6-2.1l9.9-17.2c1.2-2,.5-4.5-1.5-5.7s-4.5-.5-5.7,1.5l-9.9,17.2c-1.2,2-.5,4.5,1.5,5.7h0Z"/>
    </g>
    <g>
      <path d="M266.8,92.3l-8.2-2.4c-3.8-1.1-6.6-2.5-8.4-4s-2.8-3.5-2.8-6,1.3-5.4,4-7.2c2.6-1.8,6.4-2.7,11.3-2.7s8.6.6,12.3,1.8c3.8,1.2,6.8,2.6,8.9,4.2,1.3-.9,2.4-2,3.3-3.3.9-1.4,1.3-3,1.3-4.7,0-2.6-1.2-4.8-3.6-6.7s-5.7-3.4-9.8-4.5c-4.1-1.1-8.8-1.6-14.1-1.6-9.9,0-17.7,2.2-23.5,6.7-5.7,4.4-8.6,10.5-8.6,18.1s1,8.5,2.9,11.7,4.7,5.7,8.2,7.7,7.7,3.8,12.4,5.4l9.2,2.8c4.2,1.2,7.3,2.8,9.3,4.6,2,1.8,3,4.2,3,7.2s-1.3,6.1-4,8.3c-2.6,2.2-6.7,3.3-12.2,3.3s-9.7-.9-13.6-2.7c-3.9-1.8-7-3.7-9.5-5.8-1.5.8-2.9,1.9-4.3,3.4-1.3,1.5-2,3.3-2,5.4s1.3,5.2,3.9,7.4c2.6,2.2,6.1,3.9,10.6,5.1s9.5,1.8,15.3,1.8c11,0,19.4-2.4,25.3-7.2s8.9-11.1,8.9-18.9-2.3-13-6.8-17.2c-4.5-4.2-10.9-7.5-19-10h.3Z"/>
      <path d="M356.9,78.9c-5.2-2.9-11.2-4.4-18.1-4.4s-12.9,1.4-18.1,4.3-9.3,7-12.2,12.3c-2.9,5.3-4.4,11.6-4.4,18.9s1.4,13.7,4.3,19c2.9,5.3,6.9,9.4,12.1,12.3,5.2,2.9,11.3,4.3,18.3,4.3s13.1-1.4,18.2-4.3c5.2-2.9,9.1-7,12-12.3,2.8-5.3,4.3-11.7,4.3-18.9s-1.4-13.4-4.3-18.7-6.9-9.4-12.1-12.3v-.2ZM351.1,125.9c-2.9,3.8-7,5.7-12.2,5.7s-9.4-1.9-12.3-5.6c-2.9-3.7-4.4-9.1-4.4-16.1s1.5-12.1,4.5-15.9,7-5.7,12.1-5.7,9.4,1.9,12.3,5.7c2.9,3.8,4.4,9.1,4.4,15.8s-1.5,12.2-4.4,16h0Z"/>
      <path d="M397,50.2c-1.6,0-3.1,0-4.6.4-1.5.3-2.5.5-3.2.7v84.9c0,3,.8,5.1,2.3,6.3,1.6,1.2,3.9,1.8,7.2,1.8s3.3-.1,4.7-.4c1.4-.2,2.5-.5,3.3-.8V58.3c0-3-.8-5.1-2.3-6.3s-4-1.8-7.4-1.8Z"/>
      <path d="M473.4,80.3c-5.5-3.9-12.9-5.9-22.1-5.9s-7,.3-10.6.9c-3.5.6-6.6,1.5-9.3,2.7-3.8,1.6-5.7,4.1-5.7,7.5s.4,2.8,1.1,4.1c.8,1.3,1.6,2.4,2.6,3.1,2.7-1.3,5.9-2.5,9.4-3.4s7.1-1.4,10.8-1.4,8.4.8,11,2.6c2.6,1.7,3.9,4.4,3.9,8.2v2.6l-19.3,2c-7.7.8-13.5,2.8-17.5,6.2-4,3.4-6,8.2-6,14.5s2.7,12.6,8.1,16.2c5.4,3.6,12.8,5.5,22.3,5.5s9.7-.5,13.8-1.5c4.1-1,7.4-2.2,10.1-3.8,1.7-1,3.1-2.2,4.2-3.5s1.6-3.1,1.6-5.4v-32.6c0-8.4-2.7-14.6-8.2-18.5h-.2ZM464.6,129.6c-1,.7-2.7,1.3-5,1.8-2.3.6-4.8.9-7.7.9-4.5,0-7.9-.8-10.1-2.4-2.2-1.6-3.3-3.8-3.3-6.5s1-4.7,3-6c2-1.4,5-2.2,8.9-2.5l14-1.4v16.2h.2Z"/>
      <path d="M549,127.2c-1.8,1-3.9,2-6.3,2.9-2.4.9-5.4,1.3-8.9,1.3-5.9,0-10.6-1.8-14.3-5.4s-5.5-8.9-5.5-15.9,1.9-12.5,5.7-16.2,8.6-5.5,14.2-5.5,6.1.4,8.5,1.3,4.5,1.8,6.4,3c1-.8,1.9-1.7,2.7-3,.8-1.2,1.1-2.6,1.1-4,0-3.2-1.9-5.9-5.7-8.1s-8.8-3.3-15-3.3-12.5,1.3-17.9,3.9c-5.4,2.6-9.8,6.5-13,11.8s-4.9,12-4.9,20,1.5,14.3,4.6,19.6,7.3,9.2,12.8,11.8,11.7,3.9,18.9,3.9,11.4-1,15.3-3c3.9-2,5.8-4.7,5.8-7.9s-.4-3.1-1.2-4.3-1.9-2.2-3.3-3h0Z"/>
      <path d="M612.6,78.2c-4.7-2.5-10.1-3.8-16.4-3.8s-8.7.7-12.8,2.2-7.6,3.6-10.7,6.5c-3.1,2.9-5.5,6.5-7.3,10.8s-2.7,9.4-2.7,15.2,1.6,14.7,4.8,20.1,7.6,9.4,13.2,12.1c5.6,2.7,12.1,4,19.4,4s8.9-.5,12.6-1.4c3.7-.9,6.6-2.3,8.8-4s3.3-3.9,3.3-6.3-.4-2.9-1.2-4.2-1.9-2.3-3.2-3.2c-2,1.4-4.7,2.7-8.1,3.9-3.4,1.2-7.1,1.8-11.1,1.8-5.9,0-10.7-1.4-14.5-4.3-3.1-2.3-5.1-5.6-6.3-9.9l39.5-5.7c2.5-.3,4.4-1.1,5.7-2.3,1.4-1.3,2.1-3.2,2.1-5.9,0-5.8-1.3-10.9-4-15.3s-6.4-7.9-11.1-10.4h0ZM579.3,105.7c.3-5.6,1.9-9.9,4.9-13,3.2-3.4,7.2-5,12.1-5s8.3,1.3,10.8,4c2.5,2.6,3.8,5.8,4.1,9.4l-31.8,4.7h0Z"/>
      <path d="M677.6,99.8h-32.2c-2,0-3.6.6-4.9,1.8-1.3,1.2-1.9,3-1.9,5.5s.2,2.7.6,3.9c.4,1.2.8,2.2,1.3,3h32.2c2.1,0,3.7-.6,5-1.8s1.8-3.1,1.8-5.5-.2-2.6-.6-3.8c-.4-1.2-.8-2.2-1.2-3h0Z"/>
      <path d="M753,101.3c-2.4-7.3-4.7-14.3-6.9-21-2.3-6.7-4.4-12.7-6.4-17.9-.7-2.1-2.3-3.6-5-4.5s-5.6-1.4-8.9-1.4-4.9.3-7.2.9c-2.4.6-4.1,1.2-5.2,1.8-1.3,3.3-2.9,7.4-4.7,12.3s-3.7,10.1-5.7,15.7-4,11.1-5.9,16.6-3.6,10.6-5.2,15.2c-1.6,4.7-2.9,8.6-3.8,11.7-.4,1.4-.7,2.7-1.1,3.8s-.5,2.2-.5,3.3c0,2.4.9,4.1,2.6,5.3s4.1,1.8,7.2,1.8,2.8-.1,3.9-.4c1.1-.2,2.1-.5,3-.8.5-1.5,1-3.3,1.6-5.2.6-2,1.3-4.1,2-6.3s1.4-4.4,2-6.6c.3-.9.5-1.7.7-2.6h32l4.6,14.6c.8,2.5,1.8,4.3,3.2,5.5s3.6,1.8,6.7,1.8,4.1-.3,5.7-1c1.7-.7,3-1.5,3.9-2.6-1.7-5.6-3.6-11.8-5.8-18.7-2.2-6.9-4.4-14-6.8-21.3h0ZM717,97.2c1.6-4.7,3.1-9.2,4.6-13.5s2.8-8.2,4-11.6h.7c.9,2.9,2.1,6.4,3.4,10.5,1.3,4.1,2.7,8.4,4.2,13.1,1.4,4.4,2.8,8.8,4.2,13.3h-25c1.2-3.8,2.5-7.7,3.9-11.7h0Z"/>
      <path d="M795.5,58.1c-1.5-1.2-3.9-1.8-7.2-1.8s-3.2,0-4.8.4c-1.6.3-2.8.5-3.5.7v78.5c0,3,.8,5.2,2.3,6.5s4,1.9,7.4,1.9,3.3-.1,4.8-.4,2.6-.5,3.4-.8v-78.5c0-3.2-.8-5.4-2.3-6.6h-.1Z"/>
    </g>
  </g>
</svg>