<?xml version="1.0" encoding="UTF-8"?>
<svg id="Layer_1" xmlns="http://www.w3.org/2000/svg" viewBox="0 0 1290.59 169.97">
  <defs>
    <style>
      .cls-1 {
        fill: #ef529b;
      }
    </style>
  </defs>
  <path class="cls-1" d="M49.7,55.47h-24.85v-24.03h20c2.67,0,4.84-2.21,4.84-4.92V6.19h23.64v25.26c0,13.27-10.58,24.03-23.64,24.03ZM24.85,57.93H0v24.03h20c2.67,0,4.84,2.21,4.84,4.92v20.33h23.64v-25.26c0-13.27-10.58-24.03-23.64-24.03ZM104.24,56.7c-2.67,0-4.85-2.21-4.85-4.92v-20.33h-23.64v25.26c0,13.27,10.58,24.03,23.64,24.03h24.85v-24.03h-20ZM50.91,107.21v25.26h23.64v-20.33c0-2.71,2.17-4.92,4.84-4.92h20v-24.03h-24.85c-13.06,0-23.64,10.75-23.64,24.03Z"/>
  <path class="cls-1" d="M1235.64,37.77h18.7v22.85c6.54-16.24,17.68-24.36,33.42-24.36h2.83v18.32h-4.72c-11.96,0-20.2,3.46-24.74,10.39-4.4,6.8-6.61,17.19-6.61,31.16v36.07h-18.88V37.77Z"/>
  <path class="cls-1" d="M1160.63,134.65c-9.69,0-17.37-2.46-23.04-7.37-5.54-4.91-8.31-11.71-8.31-20.4,0-7.81,2.21-14.04,6.61-18.7,4.54-4.78,11.9-8.06,22.1-9.82l23.6-3.97c4.66-.76,8-1.95,10.01-3.59,2.14-1.64,3.21-4.09,3.21-7.37,0-4.66-1.57-8.18-4.72-10.58-3.02-2.52-8.37-3.78-16.05-3.78s-13.47,1.51-17.37,4.53c-3.78,3.02-5.92,7.55-6.42,13.6h-18.89c.13-10.2,3.84-18.19,11.14-23.98,7.3-5.79,17.57-8.69,30.79-8.69s22.34,2.64,28.89,7.93c6.67,5.29,10.01,12.4,10.01,21.34v46.83c0,6.93.31,14.1.94,21.53h-17.18c-.76-7.43-1.14-14.54-1.14-21.34-2.14,6.8-6.04,12.46-11.7,17-5.67,4.53-13.16,6.8-22.48,6.8ZM1148.17,106.13c0,4.41,1.45,7.87,4.34,10.39,3.02,2.39,7.05,3.59,12.09,3.59,9.57,0,16.99-3.15,22.28-9.44,5.29-6.42,7.93-14.54,7.93-24.36v-5.67c-2.26,1.64-4.72,2.96-7.36,3.97-2.64.88-5.79,1.76-9.44,2.64l-13.03,3.02c-5.92,1.38-10.2,3.34-12.85,5.85-2.64,2.39-3.96,5.73-3.96,10.01Z"/>
  <path class="cls-1" d="M1089.58,0h18.89v132.2h-18.89V0Z"/>
  <path class="cls-1" d="M1021.22,135.22c-10.58,0-19.51-2.2-26.82-6.61-7.3-4.41-12.78-10.39-16.43-17.94-3.65-7.68-5.48-16.3-5.48-25.87s1.83-17.94,5.48-25.49c3.65-7.55,9.13-13.53,16.43-17.94,7.31-4.41,16.24-6.61,26.82-6.61s19.51,2.2,26.82,6.61c7.3,4.41,12.78,10.45,16.43,18.13,3.65,7.55,5.47,15.99,5.47,25.31s-1.82,18-5.47,25.68c-3.65,7.55-9.13,13.6-16.43,18.13-7.31,4.41-16.24,6.61-26.82,6.61ZM991.57,84.98c0,12.46,2.33,21.47,6.99,27.01,4.78,5.41,12.34,8.12,22.66,8.12s17.81-2.71,22.47-8.12c4.79-5.54,7.18-14.54,7.18-27.01s-2.39-21.4-7.18-26.82c-4.66-5.54-12.15-8.31-22.47-8.31s-17.88,2.77-22.66,8.31c-4.66,5.41-6.99,14.35-6.99,26.82Z"/>
  <path class="cls-1" d="M867.53,0h18.89v58.92c6.55-16.12,17.94-24.17,34.18-24.17,12.21,0,20.96,3.21,26.25,9.63,5.41,6.42,8.12,16.05,8.12,28.89v58.92h-18.89v-57.22c0-9.19-1.83-15.55-5.48-19.07-3.65-3.65-8.81-5.48-15.49-5.48-9.57,0-16.74,3.34-21.53,10.01-4.78,6.67-7.18,17.31-7.18,31.92v39.85h-18.89V0Z"/>
  <path class="cls-1" d="M754.32,84.98c0-9.57,1.83-18.13,5.48-25.68,3.78-7.55,9.25-13.53,16.43-17.94,7.3-4.41,16.11-6.61,26.44-6.61,14.23,0,25.18,3.53,32.86,10.58,7.8,6.92,11.96,16.18,12.46,27.76h-17.75c-.88-6.92-3.46-12.53-7.74-16.81-4.28-4.28-10.64-6.42-19.07-6.42-9.69,0-17.12,2.77-22.28,8.31-5.16,5.41-7.74,14.35-7.74,26.82s2.52,21.59,7.55,27.01,12.4,8.12,22.1,8.12c8.69,0,15.3-2.2,19.83-6.61,4.66-4.53,7.43-10.45,8.31-17.75h17.75c-.25,7.18-2.2,13.79-5.85,19.83-3.53,5.92-8.69,10.7-15.49,14.35-6.8,3.53-14.98,5.29-24.55,5.29-10.32,0-19.14-2.2-26.44-6.61-7.3-4.41-12.84-10.39-16.62-17.94-3.78-7.55-5.67-16.12-5.67-25.68Z"/>
  <path class="cls-1" d="M653.17,90.08c.63,20.02,12.72,30.03,36.26,30.03,11.83,0,20.02-1.83,24.55-5.48,4.53-3.65,6.8-9,6.8-16.05,0-5.79-1.76-10.32-5.29-13.6-3.4-3.4-8.69-5.6-15.86-6.61l-29.08-4.15c-21.66-3.02-32.48-14.29-32.48-33.8,0-11.08,4.15-20.02,12.46-26.82,8.31-6.92,20.52-10.39,36.64-10.39s29.33,3.71,37.77,11.14c8.56,7.3,13.28,17,14.16,29.08h-18.89c-1.01-7.93-4.22-14.1-9.63-18.51-5.41-4.41-13.28-6.61-23.61-6.61s-17.19,1.95-22.1,5.85c-4.78,3.78-7.18,9-7.18,15.67,0,4.78,1.39,8.75,4.16,11.9,2.77,3.02,6.99,4.97,12.65,5.85l30.78,4.53c11.46,1.64,20.14,5.22,26.06,10.76,6.04,5.41,9.07,13.16,9.07,23.23,0,26.06-17,39.09-50.99,39.09-19.14,0-33.11-4.22-41.93-12.65-8.81-8.56-13.22-19.39-13.22-32.48h18.89Z"/>
  <path class="cls-1" d="M528.19,37.77h18.89v21.15c6.55-16.12,17.94-24.17,34.18-24.17,12.21,0,20.96,3.21,26.25,9.63,5.41,6.42,8.12,16.05,8.12,28.89v58.92h-18.89v-57.22c0-9.19-1.83-15.55-5.48-19.07-3.65-3.65-8.81-5.48-15.49-5.48-9.57,0-16.75,3.34-21.53,10.01-4.78,6.67-7.18,17.31-7.18,31.92v39.85h-18.89V37.77Z"/>
  <path class="cls-1" d="M464.05,135.22c-15.99,0-27.95-4.66-35.88-13.97-7.93-9.32-11.9-21.47-11.9-36.45,0-9.44,1.76-17.94,5.29-25.49,3.52-7.55,8.88-13.53,16.05-17.94,7.18-4.41,15.99-6.61,26.44-6.61,9.69,0,17.94,2.14,24.74,6.42,6.93,4.15,12.09,9.88,15.49,17.19,3.52,7.3,5.29,15.55,5.29,24.74,0,3.15-.13,5.54-.38,7.18h-74.41c.76,11.2,3.71,19.2,8.88,23.98,5.16,4.66,12.15,6.99,20.96,6.99,15.11,0,24.24-5.85,27.38-17.56h17.37c-1.13,8.31-5.29,15.67-12.46,22.1-7.05,6.29-18,9.44-32.86,9.44ZM491.44,76.48c-.88-18.51-9.95-27.76-27.19-27.76-8.56,0-15.3,2.14-20.21,6.42-4.91,4.15-7.93,11.27-9.07,21.34h56.47Z"/>
  <path class="cls-1" d="M358.12,135.22c-16.62,0-28.27-6.42-34.94-19.26v54.01h-18.88V37.77h18.88v16.24c6.67-12.84,18.32-19.26,34.94-19.26,14.48,0,25.43,4.72,32.86,14.16,7.43,9.32,11.14,21.34,11.14,36.07s-3.71,26.82-11.14,36.26c-7.43,9.32-18.38,13.97-32.86,13.97ZM323.18,84.98c0,23.42,10.32,35.13,30.97,35.13,10.32,0,17.69-2.83,22.1-8.5,4.53-5.79,6.8-14.67,6.8-26.63s-2.27-20.77-6.8-26.44c-4.41-5.79-11.77-8.69-22.1-8.69-20.65,0-30.97,11.71-30.97,35.13Z"/>
  <path class="cls-1" d="M220.63,135.41c-21.4,0-37.39-6.04-47.97-18.13-10.45-12.21-15.68-28.2-15.68-47.97,0-12.59,2.2-23.86,6.61-33.8,4.53-9.95,11.52-17.81,20.96-23.61,9.57-5.79,21.59-8.69,36.07-8.69s26.44,2.9,35.88,8.69c9.57,5.79,16.56,13.66,20.96,23.61,4.53,9.95,6.8,21.21,6.8,33.8s-2.27,24.05-6.8,33.99c-4.41,9.95-11.39,17.81-20.96,23.61-9.44,5.67-21.4,8.5-35.88,8.5ZM177.38,69.31c0,16.87,3.4,29.46,10.2,37.77,6.93,8.18,17.94,12.27,33.05,12.27s26.06-4.09,32.86-12.27c6.92-8.31,10.39-20.9,10.39-37.77s-3.46-29.4-10.39-37.58c-6.8-8.31-17.75-12.46-32.86-12.46s-26.12,4.15-33.05,12.46c-6.8,8.18-10.2,20.71-10.2,37.58Z"/>
</svg>